<?xml version="1.0" encoding="UTF-8" ?>
<!DOCTYPE svg PUBLIC "-//W3C//DTD SVG 1.1//EN" "http://www.w3.org/Graphics/SVG/1.1/DTD/svg11.dtd">
<svg width="1024pt" height="1052pt" viewBox="0 0 1024 1052" version="1.1" xmlns="http://www.w3.org/2000/svg">
<g id="#ffffffff">
</g>
<g id="#1e243aff">
<path fill="#1e243a" opacity="1.00" d=" M 484.09 38.14 C 591.86 32.17 700.67 66.66 787.10 130.92 C 816.79 152.39 843.44 177.87 867.46 205.48 C 893.06 235.98 915.55 269.24 932.98 305.08 C 975.58 390.72 990.95 489.54 976.60 584.09 C 969.61 627.71 956.83 670.45 938.30 710.57 C 906.38 780.21 857.03 841.63 796.61 888.63 C 736.50 935.72 665.09 968.58 589.90 982.27 C 581.61 983.58 573.35 985.18 564.98 985.89 C 559.36 986.61 553.51 981.73 554.11 975.89 C 554.08 970.92 558.07 966.56 563.00 966.06 C 610.91 959.49 657.85 945.51 701.29 924.20 C 769.86 890.91 830.05 840.48 874.72 778.71 C 929.61 703.18 960.75 610.45 961.62 517.02 C 961.96 447.56 946.01 378.04 915.29 315.73 C 882.37 248.83 833.45 189.63 773.00 145.85 C 742.31 123.39 708.81 104.78 673.64 90.33 C 628.52 72.23 580.55 60.98 531.98 58.30 C 487.40 55.84 442.44 60.03 399.11 70.78 C 344.20 84.02 292.21 108.41 246.02 140.80 C 190.52 179.43 144.10 230.78 110.42 289.35 C 85.54 333.06 67.53 380.76 58.15 430.20 C 48.08 483.86 47.57 539.38 57.51 593.10 C 71.97 672.29 108.29 747.22 160.63 808.30 C 208.64 864.29 269.98 908.91 338.40 936.58 C 375.59 951.82 414.96 961.62 454.88 966.18 C 458.95 966.70 463.63 966.25 466.96 969.11 C 471.43 972.81 471.54 980.35 467.27 984.25 C 464.35 987.29 459.80 986.99 455.95 986.64 C 409.92 981.99 364.63 970.23 322.15 951.91 C 253.29 922.63 191.72 876.69 143.27 819.73 C 119.95 791.93 99.52 761.69 82.76 729.51 C 73.01 710.81 64.78 691.35 57.42 671.61 C 50.79 652.59 45.17 633.22 40.70 613.58 C 28.95 559.34 27.04 503.05 34.61 448.09 C 41.51 398.38 56.62 349.85 78.83 304.86 C 101.57 259.34 131.37 217.33 167.09 181.08 C 224.98 122.26 298.01 78.24 377.42 55.54 C 412.18 45.80 448.02 39.87 484.09 38.14 Z" />
</g>
<g id="#55814bff">
<path fill="#55814b" opacity="1.00" d=" M 418.40 285.36 C 419.83 281.56 423.92 279.01 427.97 279.59 C 431.96 280.24 435.57 282.21 439.31 283.67 C 454.69 290.29 469.68 298.01 483.48 307.54 C 499.26 318.50 513.12 332.54 522.47 349.42 C 532.50 366.53 537.39 386.27 538.41 405.97 C 538.97 418.02 537.54 430.06 535.37 441.89 C 534.18 448.60 531.63 455.10 531.70 461.99 C 531.45 474.29 536.66 485.76 538.17 497.83 C 539.48 504.57 539.54 511.43 540.28 518.24 C 541.94 505.77 543.44 493.18 547.32 481.17 C 552.62 462.85 561.99 445.79 574.20 431.18 C 584.41 419.06 596.03 407.98 609.57 399.63 C 628.66 387.16 650.21 378.85 672.35 373.66 C 691.89 369.31 712.07 366.41 732.10 368.40 C 737.34 368.63 741.22 373.92 740.74 378.97 C 740.36 384.73 739.43 390.45 738.45 396.13 C 732.03 428.17 718.81 459.38 697.20 484.16 C 685.35 497.83 671.24 509.46 655.80 518.84 C 639.37 528.35 621.29 535.04 602.57 538.30 C 590.68 540.88 578.46 541.67 566.61 544.43 C 562.26 545.61 557.54 546.96 554.59 550.62 C 549.65 556.85 547.03 564.45 543.45 571.45 C 534.56 589.50 526.92 608.20 521.34 627.54 C 515.42 648.47 512.32 670.15 511.32 691.85 C 510.56 719.32 511.48 747.08 517.60 773.97 C 521.50 794.41 527.33 814.44 530.74 834.99 C 536.58 867.99 537.32 901.95 531.85 935.06 C 530.04 948.02 526.55 960.66 523.55 973.38 C 521.81 978.30 521.46 983.94 518.21 988.19 C 514.18 993.16 505.52 992.08 502.50 986.57 C 499.81 982.31 501.58 977.16 503.06 972.82 C 508.37 954.93 512.59 936.66 514.86 918.12 C 518.78 885.70 515.79 852.72 508.10 821.06 C 503.24 798.62 493.43 777.47 480.74 758.41 C 476.33 751.95 471.81 744.99 464.63 741.32 C 459.57 738.50 453.68 738.08 448.02 737.84 C 424.84 737.20 401.49 733.63 379.91 724.87 C 359.51 716.61 340.44 704.77 324.48 689.56 C 312.61 678.50 302.84 665.35 294.54 651.46 C 285.25 634.95 277.47 617.47 272.62 599.12 C 271.75 595.78 270.64 592.45 270.50 588.98 C 270.31 583.84 275.00 579.63 279.88 579.09 C 300.82 576.56 322.07 575.61 343.04 578.35 C 379.61 582.44 415.48 598.08 441.24 624.72 C 460.25 644.48 472.36 670.18 478.11 696.83 C 479.90 704.63 479.97 712.76 482.42 720.42 C 484.79 727.58 489.00 733.90 492.84 740.32 C 491.92 723.57 491.01 706.77 492.25 690.01 C 493.06 666.29 497.44 642.79 503.87 619.97 C 507.22 608.60 511.31 597.46 514.25 585.97 C 517.24 574.83 520.43 563.61 520.71 552.00 C 522.07 533.02 520.77 513.86 517.26 495.17 C 515.21 485.39 512.91 474.72 505.11 467.78 C 499.70 463.54 493.03 461.37 487.24 457.73 C 469.57 447.06 452.89 434.18 440.22 417.73 C 431.65 405.93 424.67 392.87 420.43 378.87 C 413.49 356.01 410.43 331.71 413.60 307.92 C 414.56 300.29 415.64 292.57 418.40 285.36 M 433.84 303.03 C 432.69 310.64 432.10 318.32 431.84 326.01 C 432.10 338.75 433.77 351.45 436.63 363.87 C 441.11 382.68 450.44 400.32 463.43 414.65 C 474.68 426.09 487.77 435.79 502.06 443.10 C 499.81 435.51 497.46 427.93 494.27 420.68 C 489.03 406.95 480.80 394.64 472.28 382.77 C 470.20 379.85 467.87 376.75 467.79 373.01 C 468.04 369.45 469.63 365.60 472.94 363.85 C 476.43 361.93 481.30 361.80 484.39 364.59 C 486.75 366.67 488.37 369.42 490.13 372.00 C 501.48 389.87 512.11 408.48 518.04 428.94 C 521.72 402.85 517.17 374.88 502.18 352.86 C 495.26 342.35 486.09 333.44 475.88 326.14 C 462.95 316.67 448.65 309.11 433.84 303.03 M 624.20 413.30 C 607.54 423.42 593.11 437.17 582.24 453.35 C 571.65 468.29 565.36 485.93 562.49 503.93 C 580.01 479.54 603.10 459.66 628.07 443.21 C 631.51 440.42 636.48 438.89 640.56 441.25 C 646.73 444.31 647.33 453.86 642.04 458.03 C 631.12 466.00 620.18 474.03 610.18 483.17 C 596.33 494.61 584.96 508.67 574.09 522.88 C 596.72 520.11 619.84 516.23 640.04 505.07 C 658.59 495.31 674.47 480.95 687.33 464.50 C 704.14 441.97 715.62 415.39 720.03 387.60 C 686.59 387.59 653.26 396.85 624.20 413.30 M 292.17 597.42 C 299.14 619.34 309.31 640.35 323.32 658.65 C 343.91 686.12 374.57 705.77 408.06 713.25 C 421.89 716.85 436.24 717.30 450.40 718.68 C 432.18 695.33 409.07 675.74 382.56 662.44 C 378.88 660.83 375.96 657.20 376.17 653.05 C 375.70 648.06 380.03 643.48 384.93 643.21 C 389.26 642.81 392.89 645.65 396.60 647.43 C 406.61 653.20 416.32 659.52 425.47 666.59 C 437.31 675.46 447.51 686.21 457.76 696.82 C 453.66 681.66 448.11 666.70 439.26 653.63 C 430.16 639.10 417.00 627.52 402.58 618.45 C 369.64 598.82 329.87 593.34 292.17 597.42 Z" />
</g>
</svg>
