<?xml version="1.0" encoding="UTF-8" ?>
<!DOCTYPE svg PUBLIC "-//W3C//DTD SVG 1.1//EN" "http://www.w3.org/Graphics/SVG/1.1/DTD/svg11.dtd">
<svg width="1856pt" height="576pt" viewBox="0 0 1856 576" version="1.1" xmlns="http://www.w3.org/2000/svg">
<g id="#ffffffff">
</g>
<g id="#0d1328ff">
<path fill="#0d1328" opacity="1.00" d=" M 223.62 128.94 C 249.71 127.09 276.25 131.94 299.98 142.96 C 310.84 148.43 321.47 154.53 330.98 162.15 C 354.92 181.06 373.00 207.09 382.80 235.94 C 394.22 269.58 394.29 307.02 382.56 340.58 C 369.87 377.87 343.12 410.42 308.45 429.29 C 291.72 438.92 272.95 444.69 253.87 447.34 C 249.88 447.10 249.32 441.07 253.13 440.01 C 272.68 437.49 291.58 430.64 308.53 420.62 C 341.56 400.62 367.10 368.14 377.58 330.86 C 392.31 282.19 380.26 226.49 346.83 188.19 C 321.98 158.87 285.38 139.65 247.00 136.62 C 222.67 134.72 197.78 138.50 175.44 148.45 C 144.30 161.94 118.43 186.68 102.64 216.63 C 83.58 252.75 79.56 296.57 92.51 335.37 C 104.84 373.59 132.76 406.27 168.18 425.04 C 181.26 431.39 195.06 436.60 209.50 438.81 C 213.30 439.54 217.20 439.67 220.98 440.50 C 224.02 441.12 224.23 445.55 222.00 447.24 C 220.39 447.64 218.71 447.53 217.07 447.43 C 202.38 445.46 187.75 442.15 174.15 436.12 C 141.46 421.90 113.99 396.28 97.03 364.97 C 86.37 345.74 80.08 324.21 78.04 302.36 C 75.38 274.09 80.72 245.28 92.60 219.54 C 96.83 211.04 101.52 202.73 106.90 194.89 C 128.09 165.17 159.59 142.63 195.07 133.58 C 204.43 131.19 213.99 129.71 223.62 128.94 Z" />
</g>
<g id="#487242ff">
<path fill="#487242" opacity="1.00" d=" M 204.15 212.95 C 204.40 210.65 205.93 206.97 208.88 208.36 C 218.65 211.37 227.92 216.60 234.99 224.06 C 243.70 233.26 247.04 246.59 245.68 258.99 C 245.58 263.42 244.08 267.66 243.77 272.07 C 244.25 276.78 245.29 281.43 246.06 286.11 C 247.49 277.65 249.77 269.01 255.13 262.12 C 259.53 256.57 264.60 251.39 270.76 247.80 C 282.25 241.03 295.82 238.40 309.04 238.53 C 311.50 238.18 313.10 240.74 312.73 242.95 C 310.89 258.89 303.96 274.96 291.00 284.97 C 283.92 290.25 275.79 294.34 267.09 296.10 C 262.92 297.03 258.67 297.47 254.50 298.39 C 251.75 299.01 250.41 301.83 249.18 304.09 C 243.07 316.31 238.24 329.45 237.21 343.17 C 236.21 352.79 236.92 362.52 238.31 372.07 C 239.86 382.79 243.79 393.05 244.51 403.90 C 246.31 418.01 244.10 432.38 240.01 445.91 C 239.63 448.90 235.34 449.62 233.73 447.25 C 232.00 445.46 233.62 443.05 234.00 441.07 C 239.65 422.83 239.47 402.87 233.21 384.81 C 231.02 378.53 228.22 372.30 223.77 367.28 C 221.84 365.04 219.07 363.36 216.02 363.59 C 199.48 363.52 182.63 357.10 171.66 344.45 C 164.31 335.70 159.20 325.10 156.68 313.96 C 155.81 311.80 157.61 309.37 159.88 309.37 C 171.54 307.81 183.70 308.42 194.84 312.41 C 207.45 317.23 218.41 327.00 223.14 339.83 C 226.46 347.21 225.98 355.70 229.65 362.93 C 229.49 352.29 229.08 341.51 231.63 331.09 C 233.90 320.29 239.17 310.15 239.53 298.97 C 239.76 291.61 239.12 284.15 236.94 277.10 C 236.05 273.31 232.13 271.72 229.16 269.84 C 222.73 266.28 216.73 261.68 212.52 255.57 C 203.62 243.46 201.70 227.47 204.15 212.95 M 210.54 216.90 C 209.81 225.62 210.30 234.60 213.47 242.83 C 217.19 251.95 224.61 258.92 232.75 264.17 C 230.94 256.25 227.53 248.78 222.81 242.18 C 220.16 239.04 225.81 234.15 228.19 237.82 C 232.77 243.93 236.44 250.79 238.49 258.17 C 239.12 252.01 238.74 245.63 236.38 239.84 C 232.11 228.59 221.84 220.39 210.54 216.90 M 274.22 254.18 C 263.59 260.47 255.63 271.35 253.85 283.69 C 260.23 275.83 267.35 268.34 276.16 263.17 C 278.19 261.49 281.87 263.28 281.46 265.98 C 281.54 268.55 278.68 269.59 277.01 270.97 C 269.65 276.49 262.84 282.93 257.79 290.67 C 266.11 289.31 274.51 287.17 281.71 282.61 C 294.87 274.99 302.93 260.44 305.00 245.65 C 294.34 246.37 283.35 248.33 274.22 254.18 M 164.32 316.26 C 167.36 324.20 170.72 332.20 176.28 338.75 C 185.73 350.50 200.84 356.52 215.71 356.78 C 210.08 349.57 203.13 343.36 195.20 338.79 C 193.56 337.62 191.00 336.57 191.33 334.13 C 191.11 331.83 193.78 330.31 195.77 331.29 C 204.44 335.06 211.52 341.51 218.12 348.13 C 216.48 341.51 213.54 335.11 208.90 330.05 C 202.18 323.24 193.39 318.41 183.92 316.84 C 177.45 315.87 170.80 314.90 164.32 316.26 Z" />
</g>
</svg>
